<svg xmlns="http://www.w3.org/2000/svg" width="840" height="522" aria-labelledby="ttl dsc" role="img" viewBox="0 0 840 522"><title id="ttl">Claims I1 to I4 and F1</title><desc id="dsc">Five claims with what verifies each. I1 batch invariance, I2 schedule invariance, I3 replay determinism and I4 RNG isolation all hold. F1 fidelity passes 7 of 7 bounds against an fp64 CPU reference.</desc><defs><linearGradient id="gstep" x1="0" x2="1" y1="0" y2="0"><stop offset="0" stop-color="#B474B4"/><stop offset="1" stop-color="#D0A3D0"/></linearGradient><linearGradient id="gdrift" x1="0" x2="1" y1="0" y2="0"><stop offset="0" stop-color="#E87D8F"/><stop offset="1" stop-color="#F2ABB6"/></linearGradient><linearGradient id="gslate" x1="0" x2="1" y1="0" y2="0"><stop offset="0" stop-color="#8A8A8A"/><stop offset="1" stop-color="#A9AAAA"/></linearGradient><linearGradient id="grule" x1="0" x2="1" y1="0" y2="0"><stop offset="0" stop-color="#4F4F4F"/><stop offset="1" stop-color="#4F4F4F" stop-opacity="0"/></linearGradient><pattern id="dots" width="14" height="14" patternUnits="userSpaceOnUse"><circle cx="1" cy="1" r=".8" fill="#4F4F4F" opacity=".5"/></pattern><pattern id="hatch" width="7" height="7" patternTransform="rotate(45)" patternUnits="userSpaceOnUse"><line x1="0" x2="0" y1="0" y2="7" stroke="#7C7D7D" stroke-width="1.6" opacity=".42"/></pattern><pattern id="hatchd" width="7" height="7" patternTransform="rotate(45)" patternUnits="userSpaceOnUse"><line x1="0" x2="0" y1="0" y2="7" stroke="#E87D8F" stroke-width="1.6" opacity=".7"/></pattern><filter id="soft" width="180%" height="180%" x="-40%" y="-40%"><feGaussianBlur result="b" stdDeviation="1.6"/><feMerge><feMergeNode in="b"/><feMergeNode in="SourceGraphic"/></feMerge></filter></defs><rect width="840" height="522" x="0" y="0" fill="#2C2C2C" stroke="#454545" stroke-width="1" rx="16"/><rect width="838" height="520" x="1" y="1" fill="url(#dots)" opacity=".5" rx="15"/><rect width="7" height="7" x="22" y="26" fill="#B474B4" rx="1.5"/><text x="39" y="33" fill="#B474B4" font-family="ui-monospace, SFMono-Regular, 'SF Mono', 'JetBrains Mono', Menlo, Consolas, monospace" font-size="10" font-weight="700" letter-spacing="2.2">CLAIMS</text><rect width="622.8" height="1" x="95.2" y="29.2" fill="url(#grule)"/><path fill="none" stroke="#B474B4" stroke-linecap="round" stroke-linejoin="round" stroke-width="2" d="M 738 30 L 752 30 L 760 22 L 772 22 L 780 30 L 808 30"/><path fill="none" stroke="#D0A3D0" stroke-dasharray="1 3.4" stroke-linecap="round" stroke-width="2" d="M 738 30 L 752 30 L 760 22 L 772 22 L 780 30 L 808 30"/><text x="22" y="68" fill="#F3F4F4" font-family="ui-monospace, SFMono-Regular, 'SF Mono', 'JetBrains Mono', Menlo, Consolas, monospace" font-size="18" font-weight="700" letter-spacing="-.3">Five relations, and what measures each one</text><text x="22" y="90" fill="#A9AAAA" font-family="ui-sans-serif, -apple-system, 'Segoe UI', Roboto, Helvetica, Arial, sans-serif" font-size="12.5">every claim scoped to one environment tuple, bitwise unless a tolerance is stated</text><line x1="28" x2="28" y1="108" y2="466" stroke="#4F4F4F" stroke-width="1" opacity=".9"/><line x1="28" x2="35" y1="108" y2="108" stroke="#4F4F4F" stroke-width="1" opacity=".95"/><line x1="28" x2="32" y1="121" y2="121" stroke="#4F4F4F" stroke-width="1" opacity=".45"/><line x1="28" x2="32" y1="134" y2="134" stroke="#4F4F4F" stroke-width="1" opacity=".45"/><line x1="28" x2="32" y1="147" y2="147" stroke="#4F4F4F" stroke-width="1" opacity=".45"/><line x1="28" x2="35" y1="160" y2="160" stroke="#4F4F4F" stroke-width="1" opacity=".95"/><line x1="28" x2="32" y1="173" y2="173" stroke="#4F4F4F" stroke-width="1" opacity=".45"/><line x1="28" x2="32" y1="186" y2="186" stroke="#4F4F4F" stroke-width="1" opacity=".45"/><line x1="28" x2="32" y1="199" y2="199" stroke="#4F4F4F" stroke-width="1" opacity=".45"/><line x1="28" x2="35" y1="212" y2="212" stroke="#4F4F4F" stroke-width="1" opacity=".95"/><line x1="28" x2="32" y1="225" y2="225" stroke="#4F4F4F" stroke-width="1" opacity=".45"/><line x1="28" x2="32" y1="238" y2="238" stroke="#4F4F4F" stroke-width="1" opacity=".45"/><line x1="28" x2="32" y1="251" y2="251" stroke="#4F4F4F" stroke-width="1" opacity=".45"/><line x1="28" x2="35" y1="264" y2="264" stroke="#4F4F4F" stroke-width="1" opacity=".95"/><line x1="28" x2="32" y1="277" y2="277" stroke="#4F4F4F" stroke-width="1" opacity=".45"/><line x1="28" x2="32" y1="290" y2="290" stroke="#4F4F4F" stroke-width="1" opacity=".45"/><line x1="28" x2="32" y1="303" y2="303" stroke="#4F4F4F" stroke-width="1" opacity=".45"/><line x1="28" x2="35" y1="316" y2="316" stroke="#4F4F4F" stroke-width="1" opacity=".95"/><line x1="28" x2="32" y1="329" y2="329" stroke="#4F4F4F" stroke-width="1" opacity=".45"/><line x1="28" x2="32" y1="342" y2="342" stroke="#4F4F4F" stroke-width="1" opacity=".45"/><line x1="28" x2="32" y1="355" y2="355" stroke="#4F4F4F" stroke-width="1" opacity=".45"/><line x1="28" x2="35" y1="368" y2="368" stroke="#4F4F4F" stroke-width="1" opacity=".95"/><line x1="28" x2="32" y1="381" y2="381" stroke="#4F4F4F" stroke-width="1" opacity=".45"/><line x1="28" x2="32" y1="394" y2="394" stroke="#4F4F4F" stroke-width="1" opacity=".45"/><line x1="28" x2="32" y1="407" y2="407" stroke="#4F4F4F" stroke-width="1" opacity=".45"/><line x1="28" x2="35" y1="420" y2="420" stroke="#4F4F4F" stroke-width="1" opacity=".95"/><line x1="28" x2="32" y1="433" y2="433" stroke="#4F4F4F" stroke-width="1" opacity=".45"/><line x1="28" x2="32" y1="446" y2="446" stroke="#4F4F4F" stroke-width="1" opacity=".45"/><line x1="28" x2="32" y1="459" y2="459" stroke="#4F4F4F" stroke-width="1" opacity=".45"/><line x1="22" x2="818" y1="488" y2="488" stroke="#3D3D3D" stroke-width="1"/><rect width="5" height="5" x="22" y="501" fill="#7C7D7D" opacity=".8" rx="1"/><text x="36" y="506.5" fill="#7C7D7D" font-family="ui-monospace, SFMono-Regular, 'SF Mono', 'JetBrains Mono', Menlo, Consolas, monospace" font-size="9.5" font-weight="700" letter-spacing="1.6">SOURCE</text><text x="98" y="506.5" fill="#7C7D7D" font-family="ui-monospace, SFMono-Regular, 'SF Mono', 'JetBrains Mono', Menlo, Consolas, monospace" font-size="9.5">evidence/verify-0002.json :: evidence/fidelity-0001.json</text><text x="818" y="506.5" fill="#7C7D7D" font-family="ui-monospace, SFMono-Regular, 'SF Mono', 'JetBrains Mono', Menlo, Consolas, monospace" font-size="9.5" font-weight="700" letter-spacing="1.6" text-anchor="end">LOCKSTEP</text><rect width="752" height="62" x="52" y="116" fill="#333" stroke="#454545" stroke-width="1" rx="7"/><rect width="3" height="40" x="52" y="127" fill="#B474B4" rx="1.5"/><line x1="28" x2="52" y1="147" y2="147" stroke="#4F4F4F" stroke-width="1" opacity=".8"/><circle cx="28" cy="147" r="3" fill="#B474B4"/><rect width="40" height="22" x="68" y="136" fill="#382C3A" stroke="#B474B4" stroke-width="1" rx="4"/><text x="88" y="151" fill="#B474B4" font-family="ui-monospace, SFMono-Regular, 'SF Mono', 'JetBrains Mono', Menlo, Consolas, monospace" font-size="12.5" font-weight="700" text-anchor="middle">I1</text><text x="124" y="145" fill="#F3F4F4" font-family="ui-sans-serif, -apple-system, 'Segoe UI', Roboto, Helvetica, Arial, sans-serif" font-size="13.5" font-weight="600">Batch invariance<tspan fill="#A9AAAA" dx="11" font-size="12.5" font-weight="400">bit-identical to canonical, whatever cohabits</tspan></text><text x="124" y="163" fill="#7C7D7D" font-family="ui-monospace, SFMono-Regular, 'SF Mono', 'JetBrains Mono', Menlo, Consolas, monospace" font-size="10.5">MR1, MR5 · fp16 logit bytes · batch 1 to 32</text><rect width="88" height="20" x="704" y="137" fill="#382C3A" stroke="#B474B4" stroke-width="1" rx="10"/><path fill="none" stroke="#B474B4" stroke-linecap="round" stroke-linejoin="round" stroke-width="2" d="M 714.0 146.0 l 2.8 3.2 l 5.4 -6.4"/><text x="754" y="150.6" fill="#B474B4" font-family="ui-monospace, SFMono-Regular, 'SF Mono', 'JetBrains Mono', Menlo, Consolas, monospace" font-size="10.5" font-weight="700" text-anchor="middle">holds</text><rect width="752" height="62" x="52" y="186" fill="#333" stroke="#454545" stroke-width="1" rx="7"/><rect width="3" height="40" x="52" y="197" fill="#B474B4" rx="1.5"/><line x1="28" x2="52" y1="217" y2="217" stroke="#4F4F4F" stroke-width="1" opacity=".8"/><circle cx="28" cy="217" r="3" fill="#B474B4"/><rect width="40" height="22" x="68" y="206" fill="#382C3A" stroke="#B474B4" stroke-width="1" rx="4"/><text x="88" y="221" fill="#B474B4" font-family="ui-monospace, SFMono-Regular, 'SF Mono', 'JetBrains Mono', Menlo, Consolas, monospace" font-size="12.5" font-weight="700" text-anchor="middle">I2</text><text x="124" y="215" fill="#F3F4F4" font-family="ui-sans-serif, -apple-system, 'Segoe UI', Roboto, Helvetica, Arial, sans-serif" font-size="13.5" font-weight="600">Schedule invariance<tspan fill="#A9AAAA" dx="11" font-size="12.5" font-weight="400">any preemption, chunk partition, eviction, cache hit</tspan></text><text x="124" y="233" fill="#7C7D7D" font-family="ui-monospace, SFMono-Regular, 'SF Mono', 'JetBrains Mono', Menlo, Consolas, monospace" font-size="10.5">MR2, MR3, MR4 · per-layer KV equality</text><rect width="88" height="20" x="704" y="207" fill="#382C3A" stroke="#B474B4" stroke-width="1" rx="10"/><path fill="none" stroke="#B474B4" stroke-linecap="round" stroke-linejoin="round" stroke-width="2" d="M 714.0 216.0 l 2.8 3.2 l 5.4 -6.4"/><text x="754" y="220.6" fill="#B474B4" font-family="ui-monospace, SFMono-Regular, 'SF Mono', 'JetBrains Mono', Menlo, Consolas, monospace" font-size="10.5" font-weight="700" text-anchor="middle">holds</text><rect width="752" height="62" x="52" y="256" fill="#333" stroke="#454545" stroke-width="1" rx="7"/><rect width="3" height="40" x="52" y="267" fill="#B474B4" rx="1.5"/><line x1="28" x2="52" y1="287" y2="287" stroke="#4F4F4F" stroke-width="1" opacity=".8"/><circle cx="28" cy="287" r="3" fill="#B474B4"/><rect width="40" height="22" x="68" y="276" fill="#382C3A" stroke="#B474B4" stroke-width="1" rx="4"/><text x="88" y="291" fill="#B474B4" font-family="ui-monospace, SFMono-Regular, 'SF Mono', 'JetBrains Mono', Menlo, Consolas, monospace" font-size="12.5" font-weight="700" text-anchor="middle">I3</text><text x="124" y="285" fill="#F3F4F4" font-family="ui-sans-serif, -apple-system, 'Segoe UI', Roboto, Helvetica, Arial, sans-serif" font-size="13.5" font-weight="600">Replay determinism<tspan fill="#A9AAAA" dx="11" font-size="12.5" font-weight="400">same (W, sigma, seeds), same trajectory hash</tspan></text><text x="124" y="303" fill="#7C7D7D" font-family="ui-monospace, SFMono-Regular, 'SF Mono', 'JetBrains Mono', Menlo, Consolas, monospace" font-size="10.5">MR6 · 8 shapes · cross-process, differing PYTHONHASHSEED</text><rect width="88" height="20" x="704" y="277" fill="#382C3A" stroke="#B474B4" stroke-width="1" rx="10"/><path fill="none" stroke="#B474B4" stroke-linecap="round" stroke-linejoin="round" stroke-width="2" d="M 714.0 286.0 l 2.8 3.2 l 5.4 -6.4"/><text x="754" y="290.6" fill="#B474B4" font-family="ui-monospace, SFMono-Regular, 'SF Mono', 'JetBrains Mono', Menlo, Consolas, monospace" font-size="10.5" font-weight="700" text-anchor="middle">holds</text><rect width="752" height="62" x="52" y="326" fill="#333" stroke="#454545" stroke-width="1" rx="7"/><rect width="3" height="40" x="52" y="337" fill="#B474B4" rx="1.5"/><line x1="28" x2="52" y1="357" y2="357" stroke="#4F4F4F" stroke-width="1" opacity=".8"/><circle cx="28" cy="357" r="3" fill="#B474B4"/><rect width="40" height="22" x="68" y="346" fill="#382C3A" stroke="#B474B4" stroke-width="1" rx="4"/><text x="88" y="361" fill="#B474B4" font-family="ui-monospace, SFMono-Regular, 'SF Mono', 'JetBrains Mono', Menlo, Consolas, monospace" font-size="12.5" font-weight="700" text-anchor="middle">I4</text><text x="124" y="355" fill="#F3F4F4" font-family="ui-sans-serif, -apple-system, 'Segoe UI', Roboto, Helvetica, Arial, sans-serif" font-size="13.5" font-weight="600">RNG isolation<tspan fill="#A9AAAA" dx="11" font-size="12.5" font-weight="400">tokens from (seed, uid, position) and own logits only</tspan></text><text x="124" y="373" fill="#7C7D7D" font-family="ui-monospace, SFMono-Regular, 'SF Mono', 'JetBrains Mono', Menlo, Consolas, monospace" font-size="10.5">MR7 · 11 perturbations of the cohabitant set</text><rect width="88" height="20" x="704" y="347" fill="#382C3A" stroke="#B474B4" stroke-width="1" rx="10"/><path fill="none" stroke="#B474B4" stroke-linecap="round" stroke-linejoin="round" stroke-width="2" d="M 714.0 356.0 l 2.8 3.2 l 5.4 -6.4"/><text x="754" y="360.6" fill="#B474B4" font-family="ui-monospace, SFMono-Regular, 'SF Mono', 'JetBrains Mono', Menlo, Consolas, monospace" font-size="10.5" font-weight="700" text-anchor="middle">holds</text><rect width="752" height="62" x="52" y="396" fill="#333" stroke="#454545" stroke-width="1" rx="7"/><rect width="3" height="40" x="52" y="407" fill="#E87D8F" rx="1.5"/><line x1="28" x2="52" y1="427" y2="427" stroke="#4F4F4F" stroke-width="1" opacity=".8"/><circle cx="28" cy="427" r="3" fill="#E87D8F"/><rect width="40" height="22" x="68" y="416" fill="#4A2F35" stroke="#E87D8F" stroke-width="1" rx="4"/><text x="88" y="431" fill="#E87D8F" font-family="ui-monospace, SFMono-Regular, 'SF Mono', 'JetBrains Mono', Menlo, Consolas, monospace" font-size="12.5" font-weight="700" text-anchor="middle">F1</text><text x="124" y="425" fill="#F3F4F4" font-family="ui-sans-serif, -apple-system, 'Segoe UI', Roboto, Helvetica, Arial, sans-serif" font-size="13.5" font-weight="600">Fidelity<tspan fill="#A9AAAA" dx="11" font-size="12.5" font-weight="400">batch-1 logits against an fp64 CPU reference</tspan></text><text x="124" y="443" fill="#7C7D7D" font-family="ui-monospace, SFMono-Regular, 'SF Mono', 'JetBrains Mono', Menlo, Consolas, monospace" font-size="10.5">exact KL over 151936 tokens at 2756 positions</text><rect width="88" height="20" x="704" y="417" fill="#4A2F35" stroke="#E87D8F" stroke-width="1" rx="10"/><path fill="none" stroke="#E87D8F" stroke-linecap="round" stroke-linejoin="round" stroke-width="2" d="M 714.0 426.0 l 2.8 3.2 l 5.4 -6.4"/><text x="754" y="430.6" fill="#E87D8F" font-family="ui-monospace, SFMono-Regular, 'SF Mono', 'JetBrains Mono', Menlo, Consolas, monospace" font-size="10.5" font-weight="700" text-anchor="middle">7 of 7</text><text x="52" y="484" fill="#7C7D7D" font-family="ui-monospace, SFMono-Regular, 'SF Mono', 'JetBrains Mono', Menlo, Consolas, monospace" font-size="10.5">every claim is scoped to the environment tuple in env.lock. a claim without one is invalid by construction.</text></svg>