<svg xmlns="http://www.w3.org/2000/svg" width="840" height="620" aria-labelledby="ttl dsc" role="img" viewBox="0 0 840 620"><title id="ttl">vLLM certification across seven boundary cases</title><desc id="dsc">Seven boundary cases against vLLM batch-invariant mode: five clean, and two diverged at 44 and 45 co-resident with logprob deltas of 4.685e-02 and 3.906e-02 and no token divergence. The max-num-seqs control restores reproducibility at 8.</desc><defs><linearGradient id="gstep" x1="0" x2="1" y1="0" y2="0"><stop offset="0" stop-color="#B474B4"/><stop offset="1" stop-color="#D0A3D0"/></linearGradient><linearGradient id="gdrift" x1="0" x2="1" y1="0" y2="0"><stop offset="0" stop-color="#E87D8F"/><stop offset="1" stop-color="#F2ABB6"/></linearGradient><linearGradient id="gslate" x1="0" x2="1" y1="0" y2="0"><stop offset="0" stop-color="#8A8A8A"/><stop offset="1" stop-color="#A9AAAA"/></linearGradient><linearGradient id="grule" x1="0" x2="1" y1="0" y2="0"><stop offset="0" stop-color="#4F4F4F"/><stop offset="1" stop-color="#4F4F4F" stop-opacity="0"/></linearGradient><pattern id="dots" width="14" height="14" patternUnits="userSpaceOnUse"><circle cx="1" cy="1" r=".8" fill="#4F4F4F" opacity=".5"/></pattern><pattern id="hatch" width="7" height="7" patternTransform="rotate(45)" patternUnits="userSpaceOnUse"><line x1="0" x2="0" y1="0" y2="7" stroke="#7C7D7D" stroke-width="1.6" opacity=".42"/></pattern><pattern id="hatchd" width="7" height="7" patternTransform="rotate(45)" patternUnits="userSpaceOnUse"><line x1="0" x2="0" y1="0" y2="7" stroke="#E87D8F" stroke-width="1.6" opacity=".7"/></pattern><filter id="soft" width="180%" height="180%" x="-40%" y="-40%"><feGaussianBlur result="b" stdDeviation="1.6"/><feMerge><feMergeNode in="b"/><feMergeNode in="SourceGraphic"/></feMerge></filter></defs><rect width="840" height="620" x="0" y="0" fill="#2C2C2C" stroke="#454545" stroke-width="1" rx="16"/><rect width="838" height="618" x="1" y="1" fill="url(#dots)" opacity=".5" rx="15"/><rect width="7" height="7" x="22" y="26" fill="#E87D8F" rx="1.5"/><text x="39" y="33" fill="#E87D8F" font-family="ui-monospace, SFMono-Regular, 'SF Mono', 'JetBrains Mono', Menlo, Consolas, monospace" font-size="10" font-weight="700" letter-spacing="2.2">CERTIFICATION</text><rect width="565.4" height="1" x="152.6" y="29.2" fill="url(#grule)"/><path fill="none" stroke="#B474B4" stroke-linecap="round" stroke-linejoin="round" stroke-width="2" d="M 738 30 L 752 30 L 760 22 L 772 22 L 780 30 L 808 30"/><path fill="none" stroke="#E87D8F" stroke-dasharray="1 3.4" stroke-linecap="round" stroke-linejoin="round" stroke-width="2" d="M 780 30 L 788 39 L 808 39"/><circle cx="780" cy="30" r="2.8" fill="#E87D8F"/><text x="22" y="68" fill="#F3F4F4" font-family="ui-monospace, SFMono-Regular, 'SF Mono', 'JetBrains Mono', Menlo, Consolas, monospace" font-size="18" font-weight="700" letter-spacing="-.3">Black-box differential testing of vLLM batch-invariant mode</text><text x="22" y="90" fill="#A9AAAA" font-family="ui-sans-serif, -apple-system, 'Segoe UI', Roboto, Helvetica, Arial, sans-serif" font-size="12.5">concurrent submission, co-residency read from the engine&apos;s own gauge, every pair of repeats compared</text><line x1="28" x2="28" y1="108" y2="564" stroke="#4F4F4F" stroke-width="1" opacity=".9"/><line x1="28" x2="35" y1="108" y2="108" stroke="#4F4F4F" stroke-width="1" opacity=".95"/><line x1="28" x2="32" y1="121" y2="121" stroke="#4F4F4F" stroke-width="1" opacity=".45"/><line x1="28" x2="32" y1="134" y2="134" stroke="#4F4F4F" stroke-width="1" opacity=".45"/><line x1="28" x2="32" y1="147" y2="147" stroke="#4F4F4F" stroke-width="1" opacity=".45"/><line x1="28" x2="35" y1="160" y2="160" stroke="#4F4F4F" stroke-width="1" opacity=".95"/><line x1="28" x2="32" y1="173" y2="173" stroke="#4F4F4F" stroke-width="1" opacity=".45"/><line x1="28" x2="32" y1="186" y2="186" stroke="#4F4F4F" stroke-width="1" opacity=".45"/><line x1="28" x2="32" y1="199" y2="199" stroke="#4F4F4F" stroke-width="1" opacity=".45"/><line x1="28" x2="35" y1="212" y2="212" stroke="#4F4F4F" stroke-width="1" opacity=".95"/><line x1="28" x2="32" y1="225" y2="225" stroke="#4F4F4F" stroke-width="1" opacity=".45"/><line x1="28" x2="32" y1="238" y2="238" stroke="#4F4F4F" stroke-width="1" opacity=".45"/><line x1="28" x2="32" y1="251" y2="251" stroke="#4F4F4F" stroke-width="1" opacity=".45"/><line x1="28" x2="35" y1="264" y2="264" stroke="#4F4F4F" stroke-width="1" opacity=".95"/><line x1="28" x2="32" y1="277" y2="277" stroke="#4F4F4F" stroke-width="1" opacity=".45"/><line x1="28" x2="32" y1="290" y2="290" stroke="#4F4F4F" stroke-width="1" opacity=".45"/><line x1="28" x2="32" y1="303" y2="303" stroke="#4F4F4F" stroke-width="1" opacity=".45"/><line x1="28" x2="35" y1="316" y2="316" stroke="#4F4F4F" stroke-width="1" opacity=".95"/><line x1="28" x2="32" y1="329" y2="329" stroke="#4F4F4F" stroke-width="1" opacity=".45"/><line x1="28" x2="32" y1="342" y2="342" stroke="#4F4F4F" stroke-width="1" opacity=".45"/><line x1="28" x2="32" y1="355" y2="355" stroke="#4F4F4F" stroke-width="1" opacity=".45"/><line x1="28" x2="35" y1="368" y2="368" stroke="#4F4F4F" stroke-width="1" opacity=".95"/><line x1="28" x2="32" y1="381" y2="381" stroke="#4F4F4F" stroke-width="1" opacity=".45"/><line x1="28" x2="32" y1="394" y2="394" stroke="#4F4F4F" stroke-width="1" opacity=".45"/><line x1="28" x2="32" y1="407" y2="407" stroke="#4F4F4F" stroke-width="1" opacity=".45"/><line x1="28" x2="35" y1="420" y2="420" stroke="#4F4F4F" stroke-width="1" opacity=".95"/><line x1="28" x2="32" y1="433" y2="433" stroke="#4F4F4F" stroke-width="1" opacity=".45"/><line x1="28" x2="32" y1="446" y2="446" stroke="#4F4F4F" stroke-width="1" opacity=".45"/><line x1="28" x2="32" y1="459" y2="459" stroke="#4F4F4F" stroke-width="1" opacity=".45"/><line x1="28" x2="35" y1="472" y2="472" stroke="#4F4F4F" stroke-width="1" opacity=".95"/><line x1="28" x2="32" y1="485" y2="485" stroke="#4F4F4F" stroke-width="1" opacity=".45"/><line x1="28" x2="32" y1="498" y2="498" stroke="#4F4F4F" stroke-width="1" opacity=".45"/><line x1="28" x2="32" y1="511" y2="511" stroke="#4F4F4F" stroke-width="1" opacity=".45"/><line x1="28" x2="35" y1="524" y2="524" stroke="#4F4F4F" stroke-width="1" opacity=".95"/><line x1="28" x2="32" y1="537" y2="537" stroke="#4F4F4F" stroke-width="1" opacity=".45"/><line x1="28" x2="32" y1="550" y2="550" stroke="#4F4F4F" stroke-width="1" opacity=".45"/><line x1="28" x2="32" y1="563" y2="563" stroke="#4F4F4F" stroke-width="1" opacity=".45"/><line x1="22" x2="818" y1="586" y2="586" stroke="#3D3D3D" stroke-width="1"/><rect width="5" height="5" x="22" y="599" fill="#7C7D7D" opacity=".8" rx="1"/><text x="36" y="604.5" fill="#7C7D7D" font-family="ui-monospace, SFMono-Regular, 'SF Mono', 'JetBrains Mono', Menlo, Consolas, monospace" font-size="9.5" font-weight="700" letter-spacing="1.6">SOURCE</text><text x="98" y="604.5" fill="#7C7D7D" font-family="ui-monospace, SFMono-Regular, 'SF Mono', 'JetBrains Mono', Menlo, Consolas, monospace" font-size="9.5">evidence/certify-pairs-{a,b,mns8}.json :: vllm-project/vllm#51187</text><text x="818" y="604.5" fill="#7C7D7D" font-family="ui-monospace, SFMono-Regular, 'SF Mono', 'JetBrains Mono', Menlo, Consolas, monospace" font-size="9.5" font-weight="700" letter-spacing="1.6" text-anchor="end">LOCKSTEP</text><text x="52" y="116" fill="#7C7D7D" font-family="ui-monospace, SFMono-Regular, 'SF Mono', 'JetBrains Mono', Menlo, Consolas, monospace" font-size="9" font-weight="700" letter-spacing="1.8">BOUNDARY CASE</text><text x="348" y="116" fill="#7C7D7D" font-family="ui-monospace, SFMono-Regular, 'SF Mono', 'JetBrains Mono', Menlo, Consolas, monospace" font-size="9" font-weight="700" letter-spacing="1.8">CO-RESIDENT</text><text x="530" y="116" fill="#7C7D7D" font-family="ui-monospace, SFMono-Regular, 'SF Mono', 'JetBrains Mono', Menlo, Consolas, monospace" font-size="9" font-weight="700" letter-spacing="1.8">VERDICT</text><rect width="752" height="34" x="52" y="128" fill="#333" stroke="#454545" stroke-width="1" rx="6"/><text x="68" y="150" fill="#F3F4F4" font-family="ui-sans-serif, -apple-system, 'Segoe UI', Roboto, Helvetica, Arial, sans-serif" font-size="12">prefix_len == block_size - 1</text><rect width="140" height="6" x="348" y="142" fill="#4F4F4F" opacity=".55" rx="3"/><rect width="43.8" height="6" x="348" y="142" fill="url(#gstep)" rx="3"/><text x="520" y="150" fill="#A9AAAA" font-family="ui-monospace, SFMono-Regular, 'SF Mono', 'JetBrains Mono', Menlo, Consolas, monospace" font-size="11" font-weight="600" text-anchor="end">15</text><rect width="84" height="20" x="530" y="135" fill="#382C3A" stroke="#B474B4" stroke-width="1" rx="10"/><path fill="none" stroke="#B474B4" stroke-linecap="round" stroke-linejoin="round" stroke-width="2" d="M 540.0 144.0 l 2.8 3.2 l 5.4 -6.4"/><text x="578" y="148.6" fill="#B474B4" font-family="ui-monospace, SFMono-Regular, 'SF Mono', 'JetBrains Mono', Menlo, Consolas, monospace" font-size="10.5" font-weight="700" text-anchor="middle">clean</text><rect width="752" height="34" x="52" y="168" fill="#333" stroke="#454545" stroke-width="1" rx="6"/><text x="68" y="190" fill="#F3F4F4" font-family="ui-sans-serif, -apple-system, 'Segoe UI', Roboto, Helvetica, Arial, sans-serif" font-size="12">prefix_len == block_size</text><rect width="140" height="6" x="348" y="182" fill="#4F4F4F" opacity=".55" rx="3"/><rect width="43.8" height="6" x="348" y="182" fill="url(#gstep)" rx="3"/><text x="520" y="190" fill="#A9AAAA" font-family="ui-monospace, SFMono-Regular, 'SF Mono', 'JetBrains Mono', Menlo, Consolas, monospace" font-size="11" font-weight="600" text-anchor="end">15</text><rect width="84" height="20" x="530" y="175" fill="#382C3A" stroke="#B474B4" stroke-width="1" rx="10"/><path fill="none" stroke="#B474B4" stroke-linecap="round" stroke-linejoin="round" stroke-width="2" d="M 540.0 184.0 l 2.8 3.2 l 5.4 -6.4"/><text x="578" y="188.6" fill="#B474B4" font-family="ui-monospace, SFMono-Regular, 'SF Mono', 'JetBrains Mono', Menlo, Consolas, monospace" font-size="10.5" font-weight="700" text-anchor="middle">clean</text><rect width="752" height="34" x="52" y="208" fill="#333" stroke="#454545" stroke-width="1" rx="6"/><text x="68" y="230" fill="#F3F4F4" font-family="ui-sans-serif, -apple-system, 'Segoe UI', Roboto, Helvetica, Arial, sans-serif" font-size="12">prefix_len == block_size + 1</text><rect width="140" height="6" x="348" y="222" fill="#4F4F4F" opacity=".55" rx="3"/><rect width="43.8" height="6" x="348" y="222" fill="url(#gstep)" rx="3"/><text x="520" y="230" fill="#A9AAAA" font-family="ui-monospace, SFMono-Regular, 'SF Mono', 'JetBrains Mono', Menlo, Consolas, monospace" font-size="11" font-weight="600" text-anchor="end">15</text><rect width="84" height="20" x="530" y="215" fill="#382C3A" stroke="#B474B4" stroke-width="1" rx="10"/><path fill="none" stroke="#B474B4" stroke-linecap="round" stroke-linejoin="round" stroke-width="2" d="M 540.0 224.0 l 2.8 3.2 l 5.4 -6.4"/><text x="578" y="228.6" fill="#B474B4" font-family="ui-monospace, SFMono-Regular, 'SF Mono', 'JetBrains Mono', Menlo, Consolas, monospace" font-size="10.5" font-weight="700" text-anchor="middle">clean</text><rect width="752" height="34" x="52" y="248" fill="#333" stroke="#454545" stroke-width="1" rx="6"/><text x="68" y="270" fill="#F3F4F4" font-family="ui-sans-serif, -apple-system, 'Segoe UI', Roboto, Helvetica, Arial, sans-serif" font-size="12">zero-prefix co-batched with nonzero</text><rect width="140" height="6" x="348" y="262" fill="#4F4F4F" opacity=".55" rx="3"/><rect width="46.7" height="6" x="348" y="262" fill="url(#gstep)" rx="3"/><text x="520" y="270" fill="#A9AAAA" font-family="ui-monospace, SFMono-Regular, 'SF Mono', 'JetBrains Mono', Menlo, Consolas, monospace" font-size="11" font-weight="600" text-anchor="end">16</text><rect width="84" height="20" x="530" y="255" fill="#382C3A" stroke="#B474B4" stroke-width="1" rx="10"/><path fill="none" stroke="#B474B4" stroke-linecap="round" stroke-linejoin="round" stroke-width="2" d="M 540.0 264.0 l 2.8 3.2 l 5.4 -6.4"/><text x="578" y="268.6" fill="#B474B4" font-family="ui-monospace, SFMono-Regular, 'SF Mono', 'JetBrains Mono', Menlo, Consolas, monospace" font-size="10.5" font-weight="700" text-anchor="middle">clean</text><rect width="752" height="34" x="52" y="288" fill="#333" stroke="#454545" stroke-width="1" rx="6"/><text x="68" y="310" fill="#F3F4F4" font-family="ui-sans-serif, -apple-system, 'Segoe UI', Roboto, Helvetica, Arial, sans-serif" font-size="12">cache hit covering the full prompt</text><rect width="140" height="6" x="348" y="302" fill="#4F4F4F" opacity=".55" rx="3"/><rect width="43.8" height="6" x="348" y="302" fill="url(#gstep)" rx="3"/><text x="520" y="310" fill="#A9AAAA" font-family="ui-monospace, SFMono-Regular, 'SF Mono', 'JetBrains Mono', Menlo, Consolas, monospace" font-size="11" font-weight="600" text-anchor="end">15</text><rect width="84" height="20" x="530" y="295" fill="#382C3A" stroke="#B474B4" stroke-width="1" rx="10"/><path fill="none" stroke="#B474B4" stroke-linecap="round" stroke-linejoin="round" stroke-width="2" d="M 540.0 304.0 l 2.8 3.2 l 5.4 -6.4"/><text x="578" y="308.6" fill="#B474B4" font-family="ui-monospace, SFMono-Regular, 'SF Mono', 'JetBrains Mono', Menlo, Consolas, monospace" font-size="10.5" font-weight="700" text-anchor="middle">clean</text><rect width="752" height="34" x="52" y="328" fill="#4A2F35" stroke="#E87D8F" stroke-width="1" rx="6"/><text x="68" y="350" fill="#F3F4F4" font-family="ui-sans-serif, -apple-system, 'Segoe UI', Roboto, Helvetica, Arial, sans-serif" font-size="12">batch 31, shared prefix of one block</text><rect width="140" height="6" x="348" y="342" fill="#4F4F4F" opacity=".55" rx="3"/><rect width="128.3" height="6" x="348" y="342" fill="url(#gdrift)" rx="3"/><text x="520" y="350" fill="#A9AAAA" font-family="ui-monospace, SFMono-Regular, 'SF Mono', 'JetBrains Mono', Menlo, Consolas, monospace" font-size="11" font-weight="600" text-anchor="end">44</text><rect width="92" height="20" x="530" y="335" fill="#4A2F35" stroke="#E87D8F" stroke-width="1" rx="10"/><path stroke="#E87D8F" stroke-linecap="round" stroke-width="2" d="M 540.4 341.4 L 547.6 348.6 M 547.6 341.4 L 540.4 348.6"/><text x="582" y="348.6" fill="#E87D8F" font-family="ui-monospace, SFMono-Regular, 'SF Mono', 'JetBrains Mono', Menlo, Consolas, monospace" font-size="10.5" font-weight="700" text-anchor="middle">diverged</text><text x="636" y="350" fill="#E87D8F" font-family="ui-monospace, SFMono-Regular, 'SF Mono', 'JetBrains Mono', Menlo, Consolas, monospace" font-size="10">max delta 4.685e-02</text><rect width="752" height="34" x="52" y="368" fill="#4A2F35" stroke="#E87D8F" stroke-width="1" rx="6"/><text x="68" y="390" fill="#F3F4F4" font-family="ui-sans-serif, -apple-system, 'Segoe UI', Roboto, Helvetica, Arial, sans-serif" font-size="12">batch 32, shared prefix of one block</text><rect width="140" height="6" x="348" y="382" fill="#4F4F4F" opacity=".55" rx="3"/><rect width="131.2" height="6" x="348" y="382" fill="url(#gdrift)" rx="3"/><text x="520" y="390" fill="#A9AAAA" font-family="ui-monospace, SFMono-Regular, 'SF Mono', 'JetBrains Mono', Menlo, Consolas, monospace" font-size="11" font-weight="600" text-anchor="end">45</text><rect width="92" height="20" x="530" y="375" fill="#4A2F35" stroke="#E87D8F" stroke-width="1" rx="10"/><path stroke="#E87D8F" stroke-linecap="round" stroke-width="2" d="M 540.4 381.4 L 547.6 388.6 M 547.6 381.4 L 540.4 388.6"/><text x="582" y="388.6" fill="#E87D8F" font-family="ui-monospace, SFMono-Regular, 'SF Mono', 'JetBrains Mono', Menlo, Consolas, monospace" font-size="10.5" font-weight="700" text-anchor="middle">diverged</text><text x="636" y="390" fill="#E87D8F" font-family="ui-monospace, SFMono-Regular, 'SF Mono', 'JetBrains Mono', Menlo, Consolas, monospace" font-size="10">max delta 3.906e-02</text><rect width="752" height="152" x="52" y="422" fill="#292929" stroke="#454545" stroke-width="1" rx="8"/><text x="70" y="450" fill="#B474B4" font-family="ui-monospace, SFMono-Regular, 'SF Mono', 'JetBrains Mono', Menlo, Consolas, monospace" font-size="9.5" font-weight="700" letter-spacing="2">CONTROL</text><text x="152" y="450" fill="#A9AAAA" font-family="ui-sans-serif, -apple-system, 'Segoe UI', Roboto, Helvetica, Arial, sans-serif" font-size="11.5">one knob, and the only controlled single-variable result in this section</text><text x="70" y="492" fill="#B474B4" font-family="ui-monospace, SFMono-Regular, 'SF Mono', 'JetBrains Mono', Menlo, Consolas, monospace" font-size="11" font-weight="700">--max-num-seqs 8</text><rect width="17.3" height="8" x="310" y="484" fill="url(#gstep)" rx="4"/><text x="426" y="492" fill="#7C7D7D" font-family="ui-monospace, SFMono-Regular, 'SF Mono', 'JetBrains Mono', Menlo, Consolas, monospace" font-size="10">8 co-resident</text><text x="536" y="492" fill="#B474B4" font-family="ui-monospace, SFMono-Regular, 'SF Mono', 'JetBrains Mono', Menlo, Consolas, monospace" font-size="11" font-weight="600">1 of 5, reproducible</text><text x="70" y="516" fill="#A9AAAA" font-family="ui-monospace, SFMono-Regular, 'SF Mono', 'JetBrains Mono', Menlo, Consolas, monospace" font-size="11">--max-num-seqs 64</text><rect width="97.5" height="8" x="310" y="508" fill="url(#gdrift)" rx="4"/><text x="426" y="516" fill="#7C7D7D" font-family="ui-monospace, SFMono-Regular, 'SF Mono', 'JetBrains Mono', Menlo, Consolas, monospace" font-size="10">45 co-resident</text><text x="536" y="516" fill="#E87D8F" font-family="ui-monospace, SFMono-Regular, 'SF Mono', 'JetBrains Mono', Menlo, Consolas, monospace" font-size="11">not reproducible</text><text x="70" y="540" fill="#A9AAAA" font-family="ui-monospace, SFMono-Regular, 'SF Mono', 'JetBrains Mono', Menlo, Consolas, monospace" font-size="11">--max-num-seqs 128, the default</text><rect width="97.5" height="8" x="310" y="532" fill="url(#gdrift)" rx="4"/><text x="426" y="540" fill="#7C7D7D" font-family="ui-monospace, SFMono-Regular, 'SF Mono', 'JetBrains Mono', Menlo, Consolas, monospace" font-size="10">45 co-resident</text><text x="536" y="540" fill="#E87D8F" font-family="ui-monospace, SFMono-Regular, 'SF Mono', 'JetBrains Mono', Menlo, Consolas, monospace" font-size="11">not reproducible, intermittently</text><text x="70" y="560" fill="#7C7D7D" font-family="ui-monospace, SFMono-Regular, 'SF Mono', 'JetBrains Mono', Menlo, Consolas, monospace" font-size="9.5">intermittent at about one lifetime in three, so which cases trip is not the claim. token ids never move, only logprobs. filed as vllm#51187.</text></svg>