<svg xmlns="http://www.w3.org/2000/svg" width="840" height="536" aria-labelledby="ttl dsc" role="img" viewBox="0 0 840 536"><title id="ttl">Lifecycle n-gram coverage against the corrected denominator</title><desc id="dsc">19 of 25 two-grams and 43 of 79 three-grams reached, split between the swarm campaign and the eviction campaign, with probe-only cells outlined and never-reached cells hatched. The denominator was corrected from 27 and 84.</desc><defs><linearGradient id="gstep" x1="0" x2="1" y1="0" y2="0"><stop offset="0" stop-color="#B474B4"/><stop offset="1" stop-color="#D0A3D0"/></linearGradient><linearGradient id="gdrift" x1="0" x2="1" y1="0" y2="0"><stop offset="0" stop-color="#E87D8F"/><stop offset="1" stop-color="#F2ABB6"/></linearGradient><linearGradient id="gslate" x1="0" x2="1" y1="0" y2="0"><stop offset="0" stop-color="#8A8A8A"/><stop offset="1" stop-color="#A9AAAA"/></linearGradient><linearGradient id="grule" x1="0" x2="1" y1="0" y2="0"><stop offset="0" stop-color="#4F4F4F"/><stop offset="1" stop-color="#4F4F4F" stop-opacity="0"/></linearGradient><pattern id="dots" width="14" height="14" patternUnits="userSpaceOnUse"><circle cx="1" cy="1" r=".8" fill="#4F4F4F" opacity=".5"/></pattern><pattern id="hatch" width="7" height="7" patternTransform="rotate(45)" patternUnits="userSpaceOnUse"><line x1="0" x2="0" y1="0" y2="7" stroke="#7C7D7D" stroke-width="1.6" opacity=".42"/></pattern><pattern id="hatchd" width="7" height="7" patternTransform="rotate(45)" patternUnits="userSpaceOnUse"><line x1="0" x2="0" y1="0" y2="7" stroke="#E87D8F" stroke-width="1.6" opacity=".7"/></pattern><filter id="soft" width="180%" height="180%" x="-40%" y="-40%"><feGaussianBlur result="b" stdDeviation="1.6"/><feMerge><feMergeNode in="b"/><feMergeNode in="SourceGraphic"/></feMerge></filter></defs><rect width="840" height="536" x="0" y="0" fill="#2C2C2C" stroke="#454545" stroke-width="1" rx="16"/><rect width="838" height="534" x="1" y="1" fill="url(#dots)" opacity=".5" rx="15"/><rect width="7" height="7" x="22" y="26" fill="#B474B4" rx="1.5"/><text x="39" y="33" fill="#B474B4" font-family="ui-monospace, SFMono-Regular, 'SF Mono', 'JetBrains Mono', Menlo, Consolas, monospace" font-size="10" font-weight="700" letter-spacing="2.2">COVERAGE</text><rect width="606.4" height="1" x="111.6" y="29.2" fill="url(#grule)"/><path fill="none" stroke="#B474B4" stroke-linecap="round" stroke-linejoin="round" stroke-width="2" d="M 738 30 L 752 30 L 760 22 L 772 22 L 780 30 L 808 30"/><path fill="none" stroke="#D0A3D0" stroke-dasharray="1 3.4" stroke-linecap="round" stroke-width="2" d="M 738 30 L 752 30 L 760 22 L 772 22 L 780 30 L 808 30"/><text x="22" y="68" fill="#F3F4F4" font-family="ui-monospace, SFMono-Regular, 'SF Mono', 'JetBrains Mono', Menlo, Consolas, monospace" font-size="18" font-weight="700" letter-spacing="-.3">Lifecycle n-grams, against the real denominator</text><text x="22" y="90" fill="#A9AAAA" font-family="ui-sans-serif, -apple-system, 'Segoe UI', Roboto, Helvetica, Arial, sans-serif" font-size="12.5">reported by population, because a case built to reach a transition is not exploration</text><line x1="28" x2="28" y1="108" y2="480" stroke="#4F4F4F" stroke-width="1" opacity=".9"/><line x1="28" x2="35" y1="108" y2="108" stroke="#4F4F4F" stroke-width="1" opacity=".95"/><line x1="28" x2="32" y1="121" y2="121" stroke="#4F4F4F" stroke-width="1" opacity=".45"/><line x1="28" x2="32" y1="134" y2="134" stroke="#4F4F4F" stroke-width="1" opacity=".45"/><line x1="28" x2="32" y1="147" y2="147" stroke="#4F4F4F" stroke-width="1" opacity=".45"/><line x1="28" x2="35" y1="160" y2="160" stroke="#4F4F4F" stroke-width="1" opacity=".95"/><line x1="28" x2="32" y1="173" y2="173" stroke="#4F4F4F" stroke-width="1" opacity=".45"/><line x1="28" x2="32" y1="186" y2="186" stroke="#4F4F4F" stroke-width="1" opacity=".45"/><line x1="28" x2="32" y1="199" y2="199" stroke="#4F4F4F" stroke-width="1" opacity=".45"/><line x1="28" x2="35" y1="212" y2="212" stroke="#4F4F4F" stroke-width="1" opacity=".95"/><line x1="28" x2="32" y1="225" y2="225" stroke="#4F4F4F" stroke-width="1" opacity=".45"/><line x1="28" x2="32" y1="238" y2="238" stroke="#4F4F4F" stroke-width="1" opacity=".45"/><line x1="28" x2="32" y1="251" y2="251" stroke="#4F4F4F" stroke-width="1" opacity=".45"/><line x1="28" x2="35" y1="264" y2="264" stroke="#4F4F4F" stroke-width="1" opacity=".95"/><line x1="28" x2="32" y1="277" y2="277" stroke="#4F4F4F" stroke-width="1" opacity=".45"/><line x1="28" x2="32" y1="290" y2="290" stroke="#4F4F4F" stroke-width="1" opacity=".45"/><line x1="28" x2="32" y1="303" y2="303" stroke="#4F4F4F" stroke-width="1" opacity=".45"/><line x1="28" x2="35" y1="316" y2="316" stroke="#4F4F4F" stroke-width="1" opacity=".95"/><line x1="28" x2="32" y1="329" y2="329" stroke="#4F4F4F" stroke-width="1" opacity=".45"/><line x1="28" x2="32" y1="342" y2="342" stroke="#4F4F4F" stroke-width="1" opacity=".45"/><line x1="28" x2="32" y1="355" y2="355" stroke="#4F4F4F" stroke-width="1" opacity=".45"/><line x1="28" x2="35" y1="368" y2="368" stroke="#4F4F4F" stroke-width="1" opacity=".95"/><line x1="28" x2="32" y1="381" y2="381" stroke="#4F4F4F" stroke-width="1" opacity=".45"/><line x1="28" x2="32" y1="394" y2="394" stroke="#4F4F4F" stroke-width="1" opacity=".45"/><line x1="28" x2="32" y1="407" y2="407" stroke="#4F4F4F" stroke-width="1" opacity=".45"/><line x1="28" x2="35" y1="420" y2="420" stroke="#4F4F4F" stroke-width="1" opacity=".95"/><line x1="28" x2="32" y1="433" y2="433" stroke="#4F4F4F" stroke-width="1" opacity=".45"/><line x1="28" x2="32" y1="446" y2="446" stroke="#4F4F4F" stroke-width="1" opacity=".45"/><line x1="28" x2="32" y1="459" y2="459" stroke="#4F4F4F" stroke-width="1" opacity=".45"/><line x1="28" x2="35" y1="472" y2="472" stroke="#4F4F4F" stroke-width="1" opacity=".95"/><line x1="22" x2="818" y1="502" y2="502" stroke="#3D3D3D" stroke-width="1"/><rect width="5" height="5" x="22" y="515" fill="#7C7D7D" opacity=".8" rx="1"/><text x="36" y="520.5" fill="#7C7D7D" font-family="ui-monospace, SFMono-Regular, 'SF Mono', 'JetBrains Mono', Menlo, Consolas, monospace" font-size="9.5" font-weight="700" letter-spacing="1.6">SOURCE</text><text x="98" y="520.5" fill="#7C7D7D" font-family="ui-monospace, SFMono-Regular, 'SF Mono', 'JetBrains Mono', Menlo, Consolas, monospace" font-size="9.5">evidence/fuzz-0002.json :: scripts/verify_no_gpu.py</text><text x="818" y="520.5" fill="#7C7D7D" font-family="ui-monospace, SFMono-Regular, 'SF Mono', 'JetBrains Mono', Menlo, Consolas, monospace" font-size="9.5" font-weight="700" letter-spacing="1.6" text-anchor="end">LOCKSTEP</text><text x="52" y="116" fill="#F3F4F4" font-family="ui-monospace, SFMono-Regular, 'SF Mono', 'JetBrains Mono', Menlo, Consolas, monospace" font-size="11.5" font-weight="700" letter-spacing=".6">2-GRAMS</text><text x="144" y="116" fill="#B474B4" font-family="ui-monospace, SFMono-Regular, 'SF Mono', 'JetBrains Mono', Menlo, Consolas, monospace" font-size="11.5" font-weight="700">19 of 25</text><text x="220" y="116" fill="#7C7D7D" font-family="ui-monospace, SFMono-Regular, 'SF Mono', 'JetBrains Mono', Menlo, Consolas, monospace" font-size="9.5">probes reach 20</text><rect width="26" height="26" x="52" y="132" fill="url(#gstep)" rx="3"/><rect width="26" height="26" x="84" y="132" fill="url(#gstep)" rx="3"/><rect width="26" height="26" x="116" y="132" fill="url(#gstep)" rx="3"/><rect width="26" height="26" x="148" y="132" fill="url(#gstep)" rx="3"/><rect width="26" height="26" x="180" y="132" fill="url(#gstep)" rx="3"/><rect width="26" height="26" x="52" y="164" fill="url(#gstep)" rx="3"/><rect width="26" height="26" x="84" y="164" fill="url(#gstep)" rx="3"/><rect width="26" height="26" x="116" y="164" fill="url(#gstep)" rx="3"/><rect width="26" height="26" x="148" y="164" fill="url(#gstep)" rx="3"/><rect width="26" height="26" x="180" y="164" fill="url(#gstep)" rx="3"/><rect width="26" height="26" x="52" y="196" fill="url(#gstep)" rx="3"/><rect width="26" height="26" x="84" y="196" fill="url(#gstep)" rx="3"/><rect width="26" height="26" x="116" y="196" fill="url(#gstep)" rx="3"/><rect width="26" height="26" x="148" y="196" fill="url(#gstep)" rx="3"/><rect width="26" height="26" x="180" y="196" fill="url(#gstep)" rx="3"/><rect width="26" height="26" x="52" y="228" fill="#B474B4" opacity=".42" rx="3"/><rect width="26" height="26" x="84" y="228" fill="#B474B4" opacity=".42" rx="3"/><rect width="26" height="26" x="116" y="228" fill="#B474B4" opacity=".42" rx="3"/><rect width="26" height="26" x="148" y="228" fill="#B474B4" opacity=".42" rx="3"/><rect width="26" height="26" x="180" y="228" fill="none" stroke="#B474B4" stroke-width="1.2" opacity=".65" rx="3"/><rect width="26" height="26" x="52" y="260" fill="none" stroke="#4F4F4F" stroke-width="1" rx="3"/><rect width="26" height="26" x="52" y="260" fill="url(#hatch)" opacity=".85" rx="3"/><rect width="26" height="26" x="84" y="260" fill="none" stroke="#4F4F4F" stroke-width="1" rx="3"/><rect width="26" height="26" x="84" y="260" fill="url(#hatch)" opacity=".85" rx="3"/><rect width="26" height="26" x="116" y="260" fill="none" stroke="#4F4F4F" stroke-width="1" rx="3"/><rect width="26" height="26" x="116" y="260" fill="url(#hatch)" opacity=".85" rx="3"/><rect width="26" height="26" x="148" y="260" fill="none" stroke="#4F4F4F" stroke-width="1" rx="3"/><rect width="26" height="26" x="148" y="260" fill="url(#hatch)" opacity=".85" rx="3"/><rect width="26" height="26" x="180" y="260" fill="none" stroke="#4F4F4F" stroke-width="1" rx="3"/><rect width="26" height="26" x="180" y="260" fill="url(#hatch)" opacity=".85" rx="3"/><text x="352" y="116" fill="#F3F4F4" font-family="ui-monospace, SFMono-Regular, 'SF Mono', 'JetBrains Mono', Menlo, Consolas, monospace" font-size="11.5" font-weight="700" letter-spacing=".6">3-GRAMS</text><text x="444" y="116" fill="#B474B4" font-family="ui-monospace, SFMono-Regular, 'SF Mono', 'JetBrains Mono', Menlo, Consolas, monospace" font-size="11.5" font-weight="700">43 of 79</text><text x="520" y="116" fill="#7C7D7D" font-family="ui-monospace, SFMono-Regular, 'SF Mono', 'JetBrains Mono', Menlo, Consolas, monospace" font-size="9.5">probes reach 46</text><rect width="26" height="26" x="352" y="132" fill="url(#gstep)" rx="3"/><rect width="26" height="26" x="384" y="132" fill="url(#gstep)" rx="3"/><rect width="26" height="26" x="416" y="132" fill="url(#gstep)" rx="3"/><rect width="26" height="26" x="448" y="132" fill="url(#gstep)" rx="3"/><rect width="26" height="26" x="480" y="132" fill="url(#gstep)" rx="3"/><rect width="26" height="26" x="512" y="132" fill="url(#gstep)" rx="3"/><rect width="26" height="26" x="544" y="132" fill="url(#gstep)" rx="3"/><rect width="26" height="26" x="576" y="132" fill="url(#gstep)" rx="3"/><rect width="26" height="26" x="608" y="132" fill="url(#gstep)" rx="3"/><rect width="26" height="26" x="640" y="132" fill="url(#gstep)" rx="3"/><rect width="26" height="26" x="672" y="132" fill="url(#gstep)" rx="3"/><rect width="26" height="26" x="704" y="132" fill="url(#gstep)" rx="3"/><rect width="26" height="26" x="352" y="164" fill="url(#gstep)" rx="3"/><rect width="26" height="26" x="384" y="164" fill="url(#gstep)" rx="3"/><rect width="26" height="26" x="416" y="164" fill="url(#gstep)" rx="3"/><rect width="26" height="26" x="448" y="164" fill="url(#gstep)" rx="3"/><rect width="26" height="26" x="480" y="164" fill="url(#gstep)" rx="3"/><rect width="26" height="26" x="512" y="164" fill="url(#gstep)" rx="3"/><rect width="26" height="26" x="544" y="164" fill="url(#gstep)" rx="3"/><rect width="26" height="26" x="576" y="164" fill="url(#gstep)" rx="3"/><rect width="26" height="26" x="608" y="164" fill="url(#gstep)" rx="3"/><rect width="26" height="26" x="640" y="164" fill="url(#gstep)" rx="3"/><rect width="26" height="26" x="672" y="164" fill="url(#gstep)" rx="3"/><rect width="26" height="26" x="704" y="164" fill="url(#gstep)" rx="3"/><rect width="26" height="26" x="352" y="196" fill="url(#gstep)" rx="3"/><rect width="26" height="26" x="384" y="196" fill="url(#gstep)" rx="3"/><rect width="26" height="26" x="416" y="196" fill="url(#gstep)" rx="3"/><rect width="26" height="26" x="448" y="196" fill="url(#gstep)" rx="3"/><rect width="26" height="26" x="480" y="196" fill="#B474B4" opacity=".42" rx="3"/><rect width="26" height="26" x="512" y="196" fill="#B474B4" opacity=".42" rx="3"/><rect width="26" height="26" x="544" y="196" fill="#B474B4" opacity=".42" rx="3"/><rect width="26" height="26" x="576" y="196" fill="#B474B4" opacity=".42" rx="3"/><rect width="26" height="26" x="608" y="196" fill="#B474B4" opacity=".42" rx="3"/><rect width="26" height="26" x="640" y="196" fill="#B474B4" opacity=".42" rx="3"/><rect width="26" height="26" x="672" y="196" fill="#B474B4" opacity=".42" rx="3"/><rect width="26" height="26" x="704" y="196" fill="#B474B4" opacity=".42" rx="3"/><rect width="26" height="26" x="352" y="228" fill="#B474B4" opacity=".42" rx="3"/><rect width="26" height="26" x="384" y="228" fill="#B474B4" opacity=".42" rx="3"/><rect width="26" height="26" x="416" y="228" fill="#B474B4" opacity=".42" rx="3"/><rect width="26" height="26" x="448" y="228" fill="#B474B4" opacity=".42" rx="3"/><rect width="26" height="26" x="480" y="228" fill="#B474B4" opacity=".42" rx="3"/><rect width="26" height="26" x="512" y="228" fill="#B474B4" opacity=".42" rx="3"/><rect width="26" height="26" x="544" y="228" fill="#B474B4" opacity=".42" rx="3"/><rect width="26" height="26" x="576" y="228" fill="none" stroke="#B474B4" stroke-width="1.2" opacity=".65" rx="3"/><rect width="26" height="26" x="608" y="228" fill="none" stroke="#B474B4" stroke-width="1.2" opacity=".65" rx="3"/><rect width="26" height="26" x="640" y="228" fill="none" stroke="#B474B4" stroke-width="1.2" opacity=".65" rx="3"/><rect width="26" height="26" x="672" y="228" fill="none" stroke="#4F4F4F" stroke-width="1" rx="3"/><rect width="26" height="26" x="672" y="228" fill="url(#hatch)" opacity=".85" rx="3"/><rect width="26" height="26" x="704" y="228" fill="none" stroke="#4F4F4F" stroke-width="1" rx="3"/><rect width="26" height="26" x="704" y="228" fill="url(#hatch)" opacity=".85" rx="3"/><rect width="26" height="26" x="352" y="260" fill="none" stroke="#4F4F4F" stroke-width="1" rx="3"/><rect width="26" height="26" x="352" y="260" fill="url(#hatch)" opacity=".85" rx="3"/><rect width="26" height="26" x="384" y="260" fill="none" stroke="#4F4F4F" stroke-width="1" rx="3"/><rect width="26" height="26" x="384" y="260" fill="url(#hatch)" opacity=".85" rx="3"/><rect width="26" height="26" x="416" y="260" fill="none" stroke="#4F4F4F" stroke-width="1" rx="3"/><rect width="26" height="26" x="416" y="260" fill="url(#hatch)" opacity=".85" rx="3"/><rect width="26" height="26" x="448" y="260" fill="none" stroke="#4F4F4F" stroke-width="1" rx="3"/><rect width="26" height="26" x="448" y="260" fill="url(#hatch)" opacity=".85" rx="3"/><rect width="26" height="26" x="480" y="260" fill="none" stroke="#4F4F4F" stroke-width="1" rx="3"/><rect width="26" height="26" x="480" y="260" fill="url(#hatch)" opacity=".85" rx="3"/><rect width="26" height="26" x="512" y="260" fill="none" stroke="#4F4F4F" stroke-width="1" rx="3"/><rect width="26" height="26" x="512" y="260" fill="url(#hatch)" opacity=".85" rx="3"/><rect width="26" height="26" x="544" y="260" fill="none" stroke="#4F4F4F" stroke-width="1" rx="3"/><rect width="26" height="26" x="544" y="260" fill="url(#hatch)" opacity=".85" rx="3"/><rect width="26" height="26" x="576" y="260" fill="none" stroke="#4F4F4F" stroke-width="1" rx="3"/><rect width="26" height="26" x="576" y="260" fill="url(#hatch)" opacity=".85" rx="3"/><rect width="26" height="26" x="608" y="260" fill="none" stroke="#4F4F4F" stroke-width="1" rx="3"/><rect width="26" height="26" x="608" y="260" fill="url(#hatch)" opacity=".85" rx="3"/><rect width="26" height="26" x="640" y="260" fill="none" stroke="#4F4F4F" stroke-width="1" rx="3"/><rect width="26" height="26" x="640" y="260" fill="url(#hatch)" opacity=".85" rx="3"/><rect width="26" height="26" x="672" y="260" fill="none" stroke="#4F4F4F" stroke-width="1" rx="3"/><rect width="26" height="26" x="672" y="260" fill="url(#hatch)" opacity=".85" rx="3"/><rect width="26" height="26" x="704" y="260" fill="none" stroke="#4F4F4F" stroke-width="1" rx="3"/><rect width="26" height="26" x="704" y="260" fill="url(#hatch)" opacity=".85" rx="3"/><rect width="26" height="26" x="352" y="292" fill="none" stroke="#4F4F4F" stroke-width="1" rx="3"/><rect width="26" height="26" x="352" y="292" fill="url(#hatch)" opacity=".85" rx="3"/><rect width="26" height="26" x="384" y="292" fill="none" stroke="#4F4F4F" stroke-width="1" rx="3"/><rect width="26" height="26" x="384" y="292" fill="url(#hatch)" opacity=".85" rx="3"/><rect width="26" height="26" x="416" y="292" fill="none" stroke="#4F4F4F" stroke-width="1" rx="3"/><rect width="26" height="26" x="416" y="292" fill="url(#hatch)" opacity=".85" rx="3"/><rect width="26" height="26" x="448" y="292" fill="none" stroke="#4F4F4F" stroke-width="1" rx="3"/><rect width="26" height="26" x="448" y="292" fill="url(#hatch)" opacity=".85" rx="3"/><rect width="26" height="26" x="480" y="292" fill="none" stroke="#4F4F4F" stroke-width="1" rx="3"/><rect width="26" height="26" x="480" y="292" fill="url(#hatch)" opacity=".85" rx="3"/><rect width="26" height="26" x="512" y="292" fill="none" stroke="#4F4F4F" stroke-width="1" rx="3"/><rect width="26" height="26" x="512" y="292" fill="url(#hatch)" opacity=".85" rx="3"/><rect width="26" height="26" x="544" y="292" fill="none" stroke="#4F4F4F" stroke-width="1" rx="3"/><rect width="26" height="26" x="544" y="292" fill="url(#hatch)" opacity=".85" rx="3"/><rect width="26" height="26" x="576" y="292" fill="none" stroke="#4F4F4F" stroke-width="1" rx="3"/><rect width="26" height="26" x="576" y="292" fill="url(#hatch)" opacity=".85" rx="3"/><rect width="26" height="26" x="608" y="292" fill="none" stroke="#4F4F4F" stroke-width="1" rx="3"/><rect width="26" height="26" x="608" y="292" fill="url(#hatch)" opacity=".85" rx="3"/><rect width="26" height="26" x="640" y="292" fill="none" stroke="#4F4F4F" stroke-width="1" rx="3"/><rect width="26" height="26" x="640" y="292" fill="url(#hatch)" opacity=".85" rx="3"/><rect width="26" height="26" x="672" y="292" fill="none" stroke="#4F4F4F" stroke-width="1" rx="3"/><rect width="26" height="26" x="672" y="292" fill="url(#hatch)" opacity=".85" rx="3"/><rect width="26" height="26" x="704" y="292" fill="none" stroke="#4F4F4F" stroke-width="1" rx="3"/><rect width="26" height="26" x="704" y="292" fill="url(#hatch)" opacity=".85" rx="3"/><rect width="26" height="26" x="352" y="324" fill="none" stroke="#4F4F4F" stroke-width="1" rx="3"/><rect width="26" height="26" x="352" y="324" fill="url(#hatch)" opacity=".85" rx="3"/><rect width="26" height="26" x="384" y="324" fill="none" stroke="#4F4F4F" stroke-width="1" rx="3"/><rect width="26" height="26" x="384" y="324" fill="url(#hatch)" opacity=".85" rx="3"/><rect width="26" height="26" x="416" y="324" fill="none" stroke="#4F4F4F" stroke-width="1" rx="3"/><rect width="26" height="26" x="416" y="324" fill="url(#hatch)" opacity=".85" rx="3"/><rect width="26" height="26" x="448" y="324" fill="none" stroke="#4F4F4F" stroke-width="1" rx="3"/><rect width="26" height="26" x="448" y="324" fill="url(#hatch)" opacity=".85" rx="3"/><rect width="26" height="26" x="480" y="324" fill="none" stroke="#4F4F4F" stroke-width="1" rx="3"/><rect width="26" height="26" x="480" y="324" fill="url(#hatch)" opacity=".85" rx="3"/><rect width="26" height="26" x="512" y="324" fill="none" stroke="#4F4F4F" stroke-width="1" rx="3"/><rect width="26" height="26" x="512" y="324" fill="url(#hatch)" opacity=".85" rx="3"/><rect width="26" height="26" x="544" y="324" fill="none" stroke="#4F4F4F" stroke-width="1" rx="3"/><rect width="26" height="26" x="544" y="324" fill="url(#hatch)" opacity=".85" rx="3"/><rect width="752" height="88" x="52" y="376" fill="#292929" stroke="#454545" stroke-width="1" rx="8"/><text x="70" y="404" fill="#E87D8F" font-family="ui-monospace, SFMono-Regular, 'SF Mono', 'JetBrains Mono', Menlo, Consolas, monospace" font-size="9.5" font-weight="700" letter-spacing="2">DENOMINATOR</text><text x="186" y="405" fill="#7C7D7D" font-family="ui-monospace, SFMono-Regular, 'SF Mono', 'JetBrains Mono', Menlo, Consolas, monospace" font-size="12.5">27 and 84</text><line x1="184" x2="254" y1="401" y2="401" stroke="#7C7D7D" stroke-width="1.3"/><text x="266" y="405" fill="#7C7D7D" font-family="ui-monospace, SFMono-Regular, 'SF Mono', 'JetBrains Mono', Menlo, Consolas, monospace" font-size="12.5">-&gt;</text><text x="294" y="405" fill="#F3F4F4" font-family="ui-monospace, SFMono-Regular, 'SF Mono', 'JetBrains Mono', Menlo, Consolas, monospace" font-size="12.5" font-weight="700">25 and 79</text><text x="386" y="405" fill="#A9AAAA" font-family="ui-sans-serif, -apple-system, 'Segoe UI', Roboto, Helvetica, Arial, sans-serif" font-size="11">one declared transition was never reachable</text><text x="70" y="430" fill="#A9AAAA" font-family="ui-sans-serif, -apple-system, 'Segoe UI', Roboto, Helvetica, Arial, sans-serif" font-size="11">every percentage published before the correction was computed against a denominator that was too large.</text><text x="70" y="448" fill="#A9AAAA" font-family="ui-sans-serif, -apple-system, 'Segoe UI', Roboto, Helvetica, Arial, sans-serif" font-size="11">the correction moves them up, 55.6 to 60.0 percent on 2-grams at identical observed counts, which is exactly why it is stated here.</text><rect width="12" height="12" x="52" y="479" fill="url(#gstep)" rx="2"/><text x="71" y="489" fill="#A9AAAA" font-family="ui-monospace, SFMono-Regular, 'SF Mono', 'JetBrains Mono', Menlo, Consolas, monospace" font-size="10">swarm campaign, 72 cases</text><rect width="12" height="12" x="240.8" y="479" fill="#B474B4" opacity=".42" rx="2"/><text x="259.8" y="489" fill="#A9AAAA" font-family="ui-monospace, SFMono-Regular, 'SF Mono', 'JetBrains Mono', Menlo, Consolas, monospace" font-size="10">plus eviction, 132 cases</text><rect width="12" height="12" x="429.6" y="479" fill="none" stroke="#B474B4" stroke-width="1.2" opacity=".65" rx="2"/><text x="448.6" y="489" fill="#A9AAAA" font-family="ui-monospace, SFMono-Regular, 'SF Mono', 'JetBrains Mono', Menlo, Consolas, monospace" font-size="10">targeted probe only</text><rect width="12" height="12" x="587.4" y="479" fill="none" stroke="#4F4F4F" stroke-width="1" rx="2"/><rect width="12" height="12" x="587.4" y="479" fill="url(#hatch)" rx="2"/><text x="606.4" y="489" fill="#A9AAAA" font-family="ui-monospace, SFMono-Regular, 'SF Mono', 'JetBrains Mono', Menlo, Consolas, monospace" font-size="10">never reached</text></svg>