<svg xmlns="http://www.w3.org/2000/svg" width="840" height="578" aria-labelledby="ttl dsc" role="img" viewBox="0 0 840 578"><title id="ttl">Wall time across six configurations, and the kill criterion</title><desc id="dsc">Wall time for six configurations, run A solid and run B faded: lockstep fast and invariant, and vLLM default and batch-invariant, each eager and graphed. Below, the 15 percent kill criterion, with the eager comparison at 14.6 and 16.6 percent straddling the bar and the graphed comparison at 10.6 and 11.5 percent consistently below it.</desc><defs><linearGradient id="gstep" x1="0" x2="1" y1="0" y2="0"><stop offset="0" stop-color="#B474B4"/><stop offset="1" stop-color="#D0A3D0"/></linearGradient><linearGradient id="gdrift" x1="0" x2="1" y1="0" y2="0"><stop offset="0" stop-color="#E87D8F"/><stop offset="1" stop-color="#F2ABB6"/></linearGradient><linearGradient id="gslate" x1="0" x2="1" y1="0" y2="0"><stop offset="0" stop-color="#8A8A8A"/><stop offset="1" stop-color="#A9AAAA"/></linearGradient><linearGradient id="grule" x1="0" x2="1" y1="0" y2="0"><stop offset="0" stop-color="#4F4F4F"/><stop offset="1" stop-color="#4F4F4F" stop-opacity="0"/></linearGradient><pattern id="dots" width="14" height="14" patternUnits="userSpaceOnUse"><circle cx="1" cy="1" r=".8" fill="#4F4F4F" opacity=".5"/></pattern><pattern id="hatch" width="7" height="7" patternTransform="rotate(45)" patternUnits="userSpaceOnUse"><line x1="0" x2="0" y1="0" y2="7" stroke="#7C7D7D" stroke-width="1.6" opacity=".42"/></pattern><pattern id="hatchd" width="7" height="7" patternTransform="rotate(45)" patternUnits="userSpaceOnUse"><line x1="0" x2="0" y1="0" y2="7" stroke="#E87D8F" stroke-width="1.6" opacity=".7"/></pattern><filter id="soft" width="180%" height="180%" x="-40%" y="-40%"><feGaussianBlur result="b" stdDeviation="1.6"/><feMerge><feMergeNode in="b"/><feMergeNode in="SourceGraphic"/></feMerge></filter></defs><rect width="840" height="578" x="0" y="0" fill="#2C2C2C" stroke="#454545" stroke-width="1" rx="16"/><rect width="838" height="576" x="1" y="1" fill="url(#dots)" opacity=".5" rx="15"/><rect width="7" height="7" x="22" y="26" fill="#B474B4" rx="1.5"/><text x="39" y="33" fill="#B474B4" font-family="ui-monospace, SFMono-Regular, 'SF Mono', 'JetBrains Mono', Menlo, Consolas, monospace" font-size="10" font-weight="700" letter-spacing="2.2">CLAIM 3 THROUGHPUT</text><rect width="524.4" height="1" x="193.6" y="29.2" fill="url(#grule)"/><path fill="none" stroke="#B474B4" stroke-linecap="round" stroke-linejoin="round" stroke-width="2" d="M 738 30 L 752 30 L 760 22 L 772 22 L 780 30 L 808 30"/><path fill="none" stroke="#D0A3D0" stroke-dasharray="1 3.4" stroke-linecap="round" stroke-width="2" d="M 738 30 L 752 30 L 760 22 L 772 22 L 780 30 L 808 30"/><text x="22" y="68" fill="#F3F4F4" font-family="ui-monospace, SFMono-Regular, 'SF Mono', 'JetBrains Mono', Menlo, Consolas, monospace" font-size="18" font-weight="700" letter-spacing="-.3">Cost of determinism, two runs of the settled design</text><text x="22" y="90" fill="#A9AAAA" font-family="ui-sans-serif, -apple-system, 'Segoe UI', Roboto, Helvetica, Arial, sans-serif" font-size="12.5">8 requests, 2972 tokens, median of 5 samples, every measurement in its own process</text><line x1="28" x2="28" y1="108" y2="522" stroke="#4F4F4F" stroke-width="1" opacity=".9"/><line x1="28" x2="35" y1="108" y2="108" stroke="#4F4F4F" stroke-width="1" opacity=".95"/><line x1="28" x2="32" y1="121" y2="121" stroke="#4F4F4F" stroke-width="1" opacity=".45"/><line x1="28" x2="32" y1="134" y2="134" stroke="#4F4F4F" stroke-width="1" opacity=".45"/><line x1="28" x2="32" y1="147" y2="147" stroke="#4F4F4F" stroke-width="1" opacity=".45"/><line x1="28" x2="35" y1="160" y2="160" stroke="#4F4F4F" stroke-width="1" opacity=".95"/><line x1="28" x2="32" y1="173" y2="173" stroke="#4F4F4F" stroke-width="1" opacity=".45"/><line x1="28" x2="32" y1="186" y2="186" stroke="#4F4F4F" stroke-width="1" opacity=".45"/><line x1="28" x2="32" y1="199" y2="199" stroke="#4F4F4F" stroke-width="1" opacity=".45"/><line x1="28" x2="35" y1="212" y2="212" stroke="#4F4F4F" stroke-width="1" opacity=".95"/><line x1="28" x2="32" y1="225" y2="225" stroke="#4F4F4F" stroke-width="1" opacity=".45"/><line x1="28" x2="32" y1="238" y2="238" stroke="#4F4F4F" stroke-width="1" opacity=".45"/><line x1="28" x2="32" y1="251" y2="251" stroke="#4F4F4F" stroke-width="1" opacity=".45"/><line x1="28" x2="35" y1="264" y2="264" stroke="#4F4F4F" stroke-width="1" opacity=".95"/><line x1="28" x2="32" y1="277" y2="277" stroke="#4F4F4F" stroke-width="1" opacity=".45"/><line x1="28" x2="32" y1="290" y2="290" stroke="#4F4F4F" stroke-width="1" opacity=".45"/><line x1="28" x2="32" y1="303" y2="303" stroke="#4F4F4F" stroke-width="1" opacity=".45"/><line x1="28" x2="35" y1="316" y2="316" stroke="#4F4F4F" stroke-width="1" opacity=".95"/><line x1="28" x2="32" y1="329" y2="329" stroke="#4F4F4F" stroke-width="1" opacity=".45"/><line x1="28" x2="32" y1="342" y2="342" stroke="#4F4F4F" stroke-width="1" opacity=".45"/><line x1="28" x2="32" y1="355" y2="355" stroke="#4F4F4F" stroke-width="1" opacity=".45"/><line x1="28" x2="35" y1="368" y2="368" stroke="#4F4F4F" stroke-width="1" opacity=".95"/><line x1="28" x2="32" y1="381" y2="381" stroke="#4F4F4F" stroke-width="1" opacity=".45"/><line x1="28" x2="32" y1="394" y2="394" stroke="#4F4F4F" stroke-width="1" opacity=".45"/><line x1="28" x2="32" y1="407" y2="407" stroke="#4F4F4F" stroke-width="1" opacity=".45"/><line x1="28" x2="35" y1="420" y2="420" stroke="#4F4F4F" stroke-width="1" opacity=".95"/><line x1="28" x2="32" y1="433" y2="433" stroke="#4F4F4F" stroke-width="1" opacity=".45"/><line x1="28" x2="32" y1="446" y2="446" stroke="#4F4F4F" stroke-width="1" opacity=".45"/><line x1="28" x2="32" y1="459" y2="459" stroke="#4F4F4F" stroke-width="1" opacity=".45"/><line x1="28" x2="35" y1="472" y2="472" stroke="#4F4F4F" stroke-width="1" opacity=".95"/><line x1="28" x2="32" y1="485" y2="485" stroke="#4F4F4F" stroke-width="1" opacity=".45"/><line x1="28" x2="32" y1="498" y2="498" stroke="#4F4F4F" stroke-width="1" opacity=".45"/><line x1="28" x2="32" y1="511" y2="511" stroke="#4F4F4F" stroke-width="1" opacity=".45"/><line x1="22" x2="818" y1="544" y2="544" stroke="#3D3D3D" stroke-width="1"/><rect width="5" height="5" x="22" y="557" fill="#7C7D7D" opacity=".8" rx="1"/><text x="36" y="562.5" fill="#7C7D7D" font-family="ui-monospace, SFMono-Regular, 'SF Mono', 'JetBrains Mono', Menlo, Consolas, monospace" font-size="9.5" font-weight="700" letter-spacing="1.6">SOURCE</text><text x="98" y="562.5" fill="#7C7D7D" font-family="ui-monospace, SFMono-Regular, 'SF Mono', 'JetBrains Mono', Menlo, Consolas, monospace" font-size="9.5">evidence/throughput-0004.json :: docs/kickoff/01-PRD.md s11</text><text x="818" y="562.5" fill="#7C7D7D" font-family="ui-monospace, SFMono-Regular, 'SF Mono', 'JetBrains Mono', Menlo, Consolas, monospace" font-size="9.5" font-weight="700" letter-spacing="1.6" text-anchor="end">LOCKSTEP</text><line x1="248" x2="248" y1="114" y2="362" stroke="#3D3D3D" stroke-width="1"/><text x="248" y="378" fill="#7C7D7D" font-family="ui-monospace, SFMono-Regular, 'SF Mono', 'JetBrains Mono', Menlo, Consolas, monospace" font-size="9.5" text-anchor="middle">0s</text><line x1="360.9" x2="360.9" y1="114" y2="362" stroke="#3D3D3D" stroke-dasharray="2 4" stroke-width="1"/><text x="360.9" y="378" fill="#7C7D7D" font-family="ui-monospace, SFMono-Regular, 'SF Mono', 'JetBrains Mono', Menlo, Consolas, monospace" font-size="9.5" text-anchor="middle">1s</text><line x1="473.9" x2="473.9" y1="114" y2="362" stroke="#3D3D3D" stroke-dasharray="2 4" stroke-width="1"/><text x="473.9" y="378" fill="#7C7D7D" font-family="ui-monospace, SFMono-Regular, 'SF Mono', 'JetBrains Mono', Menlo, Consolas, monospace" font-size="9.5" text-anchor="middle">2s</text><line x1="586.8" x2="586.8" y1="114" y2="362" stroke="#3D3D3D" stroke-dasharray="2 4" stroke-width="1"/><text x="586.8" y="378" fill="#7C7D7D" font-family="ui-monospace, SFMono-Regular, 'SF Mono', 'JetBrains Mono', Menlo, Consolas, monospace" font-size="9.5" text-anchor="middle">3s</text><text x="232" y="138" fill="#F3F4F4" font-family="ui-sans-serif, -apple-system, 'Segoe UI', Roboto, Helvetica, Arial, sans-serif" font-size="12" text-anchor="end">lockstep, fast mode</text><rect width="330.9" height="10" x="248" y="125" fill="url(#gslate)" rx="2"/><rect width="318.8" height="10" x="248" y="139" fill="url(#gslate)" opacity=".38" rx="2"/><text x="648" y="134" fill="#F3F4F4" font-family="ui-monospace, SFMono-Regular, 'SF Mono', 'JetBrains Mono', Menlo, Consolas, monospace" font-size="10.5" font-weight="600">2.930</text><text x="648" y="148" fill="#A9AAAA" font-family="ui-monospace, SFMono-Regular, 'SF Mono', 'JetBrains Mono', Menlo, Consolas, monospace" font-size="10.5">2.823</text><text x="706" y="141" fill="#7C7D7D" font-family="ui-monospace, SFMono-Regular, 'SF Mono', 'JetBrains Mono', Menlo, Consolas, monospace" font-size="9.5">spread 1.24x</text><text x="232" y="180" fill="#F3F4F4" font-family="ui-sans-serif, -apple-system, 'Segoe UI', Roboto, Helvetica, Arial, sans-serif" font-size="12" text-anchor="end">lockstep, invariant</text><rect width="364.3" height="10" x="248" y="167" fill="url(#gstep)" rx="2"/><rect width="334" height="10" x="248" y="181" fill="url(#gstep)" opacity=".38" rx="2"/><text x="648" y="176" fill="#F3F4F4" font-family="ui-monospace, SFMono-Regular, 'SF Mono', 'JetBrains Mono', Menlo, Consolas, monospace" font-size="10.5" font-weight="600">3.226</text><text x="648" y="190" fill="#A9AAAA" font-family="ui-monospace, SFMono-Regular, 'SF Mono', 'JetBrains Mono', Menlo, Consolas, monospace" font-size="10.5">2.957</text><text x="706" y="183" fill="#7C7D7D" font-family="ui-monospace, SFMono-Regular, 'SF Mono', 'JetBrains Mono', Menlo, Consolas, monospace" font-size="9.5">spread 1.17x</text><text x="232" y="222" fill="#F3F4F4" font-family="ui-sans-serif, -apple-system, 'Segoe UI', Roboto, Helvetica, Arial, sans-serif" font-size="12" text-anchor="end">vLLM default, eager</text><rect width="53.1" height="10" x="248" y="209" fill="url(#gslate)" rx="2"/><rect width="55.3" height="10" x="248" y="223" fill="url(#gslate)" opacity=".38" rx="2"/><text x="648" y="218" fill="#F3F4F4" font-family="ui-monospace, SFMono-Regular, 'SF Mono', 'JetBrains Mono', Menlo, Consolas, monospace" font-size="10.5" font-weight="600">0.470</text><text x="648" y="232" fill="#A9AAAA" font-family="ui-monospace, SFMono-Regular, 'SF Mono', 'JetBrains Mono', Menlo, Consolas, monospace" font-size="10.5">0.490</text><text x="706" y="225" fill="#E87D8F" font-family="ui-monospace, SFMono-Regular, 'SF Mono', 'JetBrains Mono', Menlo, Consolas, monospace" font-size="9.5">spread 1.27x</text><text x="232" y="264" fill="#F3F4F4" font-family="ui-sans-serif, -apple-system, 'Segoe UI', Roboto, Helvetica, Arial, sans-serif" font-size="12" text-anchor="end">vLLM batch-invariant, eager</text><rect width="63.6" height="10" x="248" y="251" fill="url(#gstep)" rx="2"/><rect width="64.8" height="10" x="248" y="265" fill="url(#gstep)" opacity=".38" rx="2"/><text x="648" y="260" fill="#F3F4F4" font-family="ui-monospace, SFMono-Regular, 'SF Mono', 'JetBrains Mono', Menlo, Consolas, monospace" font-size="10.5" font-weight="600">0.563</text><text x="648" y="274" fill="#A9AAAA" font-family="ui-monospace, SFMono-Regular, 'SF Mono', 'JetBrains Mono', Menlo, Consolas, monospace" font-size="10.5">0.574</text><text x="706" y="267" fill="#7C7D7D" font-family="ui-monospace, SFMono-Regular, 'SF Mono', 'JetBrains Mono', Menlo, Consolas, monospace" font-size="9.5">spread 1.15x</text><text x="232" y="306" fill="#F3F4F4" font-family="ui-sans-serif, -apple-system, 'Segoe UI', Roboto, Helvetica, Arial, sans-serif" font-size="12" text-anchor="end">vLLM default, CUDA graphs</text><rect width="38.7" height="10" x="248" y="293" fill="url(#gslate)" rx="2"/><rect width="38.5" height="10" x="248" y="307" fill="url(#gslate)" opacity=".38" rx="2"/><text x="648" y="302" fill="#F3F4F4" font-family="ui-monospace, SFMono-Regular, 'SF Mono', 'JetBrains Mono', Menlo, Consolas, monospace" font-size="10.5" font-weight="600">0.343</text><text x="648" y="316" fill="#A9AAAA" font-family="ui-monospace, SFMono-Regular, 'SF Mono', 'JetBrains Mono', Menlo, Consolas, monospace" font-size="10.5">0.341</text><text x="706" y="309" fill="#7C7D7D" font-family="ui-monospace, SFMono-Regular, 'SF Mono', 'JetBrains Mono', Menlo, Consolas, monospace" font-size="9.5">spread 1.08x</text><text x="232" y="348" fill="#F3F4F4" font-family="ui-sans-serif, -apple-system, 'Segoe UI', Roboto, Helvetica, Arial, sans-serif" font-size="12" text-anchor="end">vLLM batch-invariant, graphs</text><rect width="54.7" height="10" x="248" y="335" fill="url(#gstep)" rx="2"/><rect width="53.6" height="10" x="248" y="349" fill="url(#gstep)" opacity=".38" rx="2"/><text x="648" y="344" fill="#F3F4F4" font-family="ui-monospace, SFMono-Regular, 'SF Mono', 'JetBrains Mono', Menlo, Consolas, monospace" font-size="10.5" font-weight="600">0.484</text><text x="648" y="358" fill="#A9AAAA" font-family="ui-monospace, SFMono-Regular, 'SF Mono', 'JetBrains Mono', Menlo, Consolas, monospace" font-size="10.5">0.475</text><text x="706" y="351" fill="#E87D8F" font-family="ui-monospace, SFMono-Regular, 'SF Mono', 'JetBrains Mono', Menlo, Consolas, monospace" font-size="9.5">spread 1.27x</text><rect width="752" height="138" x="52" y="394" fill="#292929" stroke="#454545" stroke-width="1" rx="8"/><text x="70" y="420" fill="#E87D8F" font-family="ui-monospace, SFMono-Regular, 'SF Mono', 'JetBrains Mono', Menlo, Consolas, monospace" font-size="9.5" font-weight="700" letter-spacing="2">KILL CRITERION</text><text x="194" y="420" fill="#A9AAAA" font-family="ui-sans-serif, -apple-system, 'Segoe UI', Roboto, Helvetica, Arial, sans-serif" font-size="11.5">set in week one, before anything was built: below 15 percent of vLLM default</text><rect width="456" height="4" x="98" y="502" fill="#4F4F4F" rx="2"/><line x1="98" x2="98" y1="498" y2="510" stroke="#4F4F4F" stroke-width="1"/><text x="98" y="524" fill="#7C7D7D" font-family="ui-monospace, SFMono-Regular, 'SF Mono', 'JetBrains Mono', Menlo, Consolas, monospace" font-size="9" text-anchor="middle">0%</text><line x1="212" x2="212" y1="498" y2="510" stroke="#4F4F4F" stroke-width="1"/><text x="212" y="524" fill="#7C7D7D" font-family="ui-monospace, SFMono-Regular, 'SF Mono', 'JetBrains Mono', Menlo, Consolas, monospace" font-size="9" text-anchor="middle">5%</text><line x1="326" x2="326" y1="498" y2="510" stroke="#4F4F4F" stroke-width="1"/><text x="326" y="524" fill="#7C7D7D" font-family="ui-monospace, SFMono-Regular, 'SF Mono', 'JetBrains Mono', Menlo, Consolas, monospace" font-size="9" text-anchor="middle">10%</text><line x1="440" x2="440" y1="498" y2="510" stroke="#4F4F4F" stroke-width="1"/><text x="440" y="524" fill="#7C7D7D" font-family="ui-monospace, SFMono-Regular, 'SF Mono', 'JetBrains Mono', Menlo, Consolas, monospace" font-size="9" text-anchor="middle">15%</text><line x1="554" x2="554" y1="498" y2="510" stroke="#4F4F4F" stroke-width="1"/><text x="554" y="524" fill="#7C7D7D" font-family="ui-monospace, SFMono-Regular, 'SF Mono', 'JetBrains Mono', Menlo, Consolas, monospace" font-size="9" text-anchor="middle">20%</text><line x1="440" x2="440" y1="444" y2="510" stroke="#F3F4F4" stroke-dasharray="3 3" stroke-width="1.4" opacity=".85"/><text x="86" y="462" fill="#7C7D7D" font-family="ui-monospace, SFMono-Regular, 'SF Mono', 'JetBrains Mono', Menlo, Consolas, monospace" font-size="9" font-weight="700" text-anchor="end">A</text><text x="86" y="484" fill="#7C7D7D" font-family="ui-monospace, SFMono-Regular, 'SF Mono', 'JetBrains Mono', Menlo, Consolas, monospace" font-size="9" font-weight="700" text-anchor="end">B</text><circle cx="430.9" cy="458" r="4.5" fill="#E87D8F"/><text x="439.9" y="461.6" fill="#E87D8F" font-family="ui-monospace, SFMono-Regular, 'SF Mono', 'JetBrains Mono', Menlo, Consolas, monospace" font-size="9.5" font-weight="700">14.6</text><circle cx="476.5" cy="480" r="4.5" fill="#E87D8F"/><text x="485.5" y="483.6" fill="#E87D8F" font-family="ui-monospace, SFMono-Regular, 'SF Mono', 'JetBrains Mono', Menlo, Consolas, monospace" font-size="9.5" font-weight="700">16.6</text><circle cx="339.7" cy="458" r="4.5" fill="#B474B4"/><text x="348.7" y="461.6" fill="#B474B4" font-family="ui-monospace, SFMono-Regular, 'SF Mono', 'JetBrains Mono', Menlo, Consolas, monospace" font-size="9.5" font-weight="700">10.6</text><circle cx="360.2" cy="480" r="4.5" fill="#B474B4"/><text x="369.2" y="483.6" fill="#B474B4" font-family="ui-monospace, SFMono-Regular, 'SF Mono', 'JetBrains Mono', Menlo, Consolas, monospace" font-size="9.5" font-weight="700">11.5</text><text x="572" y="452" fill="#E87D8F" font-family="ui-monospace, SFMono-Regular, 'SF Mono', 'JetBrains Mono', Menlo, Consolas, monospace" font-size="10" font-weight="700">eager</text><text x="618" y="452" fill="#A9AAAA" font-family="ui-monospace, SFMono-Regular, 'SF Mono', 'JetBrains Mono', Menlo, Consolas, monospace" font-size="10">14.6 and 16.6, straddling</text><text x="572" y="470" fill="#B474B4" font-family="ui-monospace, SFMono-Regular, 'SF Mono', 'JetBrains Mono', Menlo, Consolas, monospace" font-size="10" font-weight="700">graphs</text><text x="618" y="470" fill="#A9AAAA" font-family="ui-monospace, SFMono-Regular, 'SF Mono', 'JetBrains Mono', Menlo, Consolas, monospace" font-size="10">10.6 and 11.5, below it</text><text x="572" y="494" fill="#7C7D7D" font-family="ui-monospace, SFMono-Regular, 'SF Mono', 'JetBrains Mono', Menlo, Consolas, monospace" font-size="9.5">the bar is finer than this</text><text x="572" y="508" fill="#7C7D7D" font-family="ui-monospace, SFMono-Regular, 'SF Mono', 'JetBrains Mono', Menlo, Consolas, monospace" font-size="9.5">measurement can resolve</text><text x="70" y="442" fill="#7C7D7D" font-family="ui-monospace, SFMono-Regular, 'SF Mono', 'JetBrains Mono', Menlo, Consolas, monospace" font-size="9.5">solid bar run A, faded bar run B. two runs do not establish a distribution, which is why both are drawn.</text></svg>